<mxfile host="app.diagrams.net" agent="Mozilla/5.0 (Macintosh; Intel Mac OS X 10_15_7) AppleWebKit/537.36 (KHTML, like Gecko) Chrome/129.0.0.0 Safari/537.36" version="24.7.17">
  <diagram name="Page-1" id="mWX7T4Unamogr8neyQI-">
    <mxGraphModel dx="1962" dy="789" grid="0" gridSize="10" guides="1" tooltips="1" connect="1" arrows="1" fold="1" page="0" pageScale="1" pageWidth="850" pageHeight="1100" math="0" shadow="0">
      <root>
        <mxCell id="0" />
        <mxCell id="1" parent="0" />
        <mxCell id="w1OrHkaXiFYTRzztFPkm-13" style="edgeStyle=orthogonalEdgeStyle;rounded=0;orthogonalLoop=1;jettySize=auto;html=1;exitX=1;exitY=0.75;exitDx=0;exitDy=0;entryX=0;entryY=0.75;entryDx=0;entryDy=0;" edge="1" parent="1" source="w1OrHkaXiFYTRzztFPkm-1" target="w1OrHkaXiFYTRzztFPkm-2">
          <mxGeometry relative="1" as="geometry" />
        </mxCell>
        <mxCell id="w1OrHkaXiFYTRzztFPkm-1" value="" style="rounded=0;whiteSpace=wrap;html=1;fillColor=#ffe6cc;strokeColor=#d79b00;shadow=1;" vertex="1" parent="1">
          <mxGeometry x="-93" y="86" width="210" height="220" as="geometry" />
        </mxCell>
        <mxCell id="w1OrHkaXiFYTRzztFPkm-11" style="edgeStyle=orthogonalEdgeStyle;rounded=0;orthogonalLoop=1;jettySize=auto;html=1;exitX=1;exitY=0.75;exitDx=0;exitDy=0;entryX=0;entryY=0.75;entryDx=0;entryDy=0;" edge="1" parent="1" source="w1OrHkaXiFYTRzztFPkm-2" target="w1OrHkaXiFYTRzztFPkm-3">
          <mxGeometry relative="1" as="geometry" />
        </mxCell>
        <mxCell id="w1OrHkaXiFYTRzztFPkm-12" style="edgeStyle=orthogonalEdgeStyle;rounded=0;orthogonalLoop=1;jettySize=auto;html=1;exitX=0;exitY=0.5;exitDx=0;exitDy=0;entryX=1;entryY=0.5;entryDx=0;entryDy=0;" edge="1" parent="1" source="w1OrHkaXiFYTRzztFPkm-2" target="w1OrHkaXiFYTRzztFPkm-1">
          <mxGeometry relative="1" as="geometry" />
        </mxCell>
        <mxCell id="w1OrHkaXiFYTRzztFPkm-2" value="" style="rounded=0;whiteSpace=wrap;html=1;fillColor=#dae8fc;strokeColor=#6c8ebf;shadow=1;" vertex="1" parent="1">
          <mxGeometry x="236" y="86" width="210" height="220" as="geometry" />
        </mxCell>
        <mxCell id="w1OrHkaXiFYTRzztFPkm-10" style="edgeStyle=orthogonalEdgeStyle;rounded=0;orthogonalLoop=1;jettySize=auto;html=1;exitX=0;exitY=0.5;exitDx=0;exitDy=0;entryX=1;entryY=0.5;entryDx=0;entryDy=0;" edge="1" parent="1" source="w1OrHkaXiFYTRzztFPkm-3" target="w1OrHkaXiFYTRzztFPkm-2">
          <mxGeometry relative="1" as="geometry" />
        </mxCell>
        <mxCell id="w1OrHkaXiFYTRzztFPkm-3" value="" style="rounded=0;whiteSpace=wrap;html=1;fillColor=#d5e8d4;strokeColor=#82b366;shadow=1;" vertex="1" parent="1">
          <mxGeometry x="583" y="86" width="210" height="220" as="geometry" />
        </mxCell>
        <mxCell id="w1OrHkaXiFYTRzztFPkm-4" value="Customer Date, Orders, Product Catalog, Pricing" style="rounded=0;whiteSpace=wrap;html=1;fillColor=#f5f5f5;strokeColor=#666666;shadow=1;fontColor=#333333;" vertex="1" parent="1">
          <mxGeometry x="-66" y="163" width="153" height="89" as="geometry" />
        </mxCell>
        <mxCell id="w1OrHkaXiFYTRzztFPkm-5" value="Recipes for Data Flow Mapping and Error Handling" style="rounded=0;whiteSpace=wrap;html=1;fillColor=#f5f5f5;fontColor=#333333;strokeColor=#666666;shadow=1;" vertex="1" parent="1">
          <mxGeometry x="259" y="163" width="153" height="89" as="geometry" />
        </mxCell>
        <mxCell id="w1OrHkaXiFYTRzztFPkm-6" value="Products, Pricing, Orders, Inventory, Customer Data" style="rounded=0;whiteSpace=wrap;html=1;fillColor=#f5f5f5;fontColor=#333333;strokeColor=#666666;shadow=1;" vertex="1" parent="1">
          <mxGeometry x="611.5" y="163" width="153" height="89" as="geometry" />
        </mxCell>
        <mxCell id="w1OrHkaXiFYTRzztFPkm-7" value="Shopify Plus&amp;nbsp;&lt;div&gt;(E-commerce for B2B/B2C)&lt;/div&gt;" style="text;html=1;align=center;verticalAlign=middle;whiteSpace=wrap;rounded=0;fontStyle=0" vertex="1" parent="1">
          <mxGeometry x="-71" y="96" width="166" height="30" as="geometry" />
        </mxCell>
        <mxCell id="w1OrHkaXiFYTRzztFPkm-8" value="Epicor Automation Studio&lt;div&gt;(Sync and Automate Data)&lt;/div&gt;" style="text;html=1;align=center;verticalAlign=middle;whiteSpace=wrap;rounded=0;fontStyle=0" vertex="1" parent="1">
          <mxGeometry x="258" y="94" width="166" height="30" as="geometry" />
        </mxCell>
        <mxCell id="w1OrHkaXiFYTRzztFPkm-9" value="Epicor Kinetic ERP&lt;div&gt;(Backend Operations)&lt;/div&gt;" style="text;html=1;align=center;verticalAlign=middle;whiteSpace=wrap;rounded=0;fontStyle=0;shadow=0;" vertex="1" parent="1">
          <mxGeometry x="605" y="96" width="166" height="30" as="geometry" />
        </mxCell>
        <mxCell id="w1OrHkaXiFYTRzztFPkm-14" value="Epicor Kinetic&#xa;Connector" style="shape=image;verticalLabelPosition=bottom;labelBackgroundColor=default;verticalAlign=top;aspect=fixed;imageAspect=0;image=data:image/png,iVBORw0KGgoAAAANSUhEUgAAAHoAAAB4CAYAAAA9kebvAAAKpmlDQ1BJQ0MgUHJvZmlsZQAASImVlwdUU9kWhs+96SGhJURASqihCNIJICWEFnpvohKSAKHEGAgqdmVwBMeCiAgqIzoqoOCoFLEhFiwMCgp2J8igoI6DBRsq7wYWwZm33nvr7ayT/a2dffbZ595z1voDABnNFYuzYFUAskW5kkh/b3p8QiIdNwTwQBmoIR8nLi9HzAoPDwaITfm/2/s+AMn9LSt5rX///b+aGl+QwwMACkc4hZ/Dy0b4BDJkPLEkFwBUKRI3WpwrlnMLwlQJ0iDCnXJOm2SZnFMm+d1ETnQkGwA0HgA8icuVpAFAoiJxeh4vDalDckDYRsQXihDmI+yRnb0Q8aT9CJshOWKE5fWZKd/VSftbzRRFTS43TcGTe5kwvI8wR5zFXfp/Po7/bdlZ0qk1TJFBSpcERMrXQ57Z3cyFQQoWpYSGTbGQP9mTnNOlATFTzMthJ04xn+sTpJibFRo8xalCP46iTi4neooFOb5RUyxZGKlYK1XCZk0xVzK9rjQzRhFPF3AU9fPTo+OmOE8YGzrFOZlRQdM5bEVcIo1U9C8Q+XtPr+un2Ht2znf7FXIUc3PTowMUe+dO9y8QsaZr5sQreuMLfHync2IU+eJcb8Va4qxwRb4gy18Rz8mLUszNRQ7k9NxwxTPM4AaGTzEQghDABbxcwZJcefPsheKlEmFaei6dhdwqAZ0j4lnPotvZ2CGnV35HJ4/AW9rE3YNo16ZjBcj78kCPj4+fmo4FRQBwbAsAxI7pGGMOACrIfb1Sy5NK8iZjaPkXBhCBCqACLaAHjIAZsAJ2wAm4AS/gCwJBGIgGCWA+4IF0kA0kYDFYDtaAQlAMtoDtoAJUgX3gEDgCjoFmcBqcB5fBdXAT9IIHQAYGwQswAt6DMQiCcBAZokBakD5kAllCdhAT8oB8oWAoEkqAkqE0SARJoeXQOqgYKoEqoL1QDfQrdBI6D12FuqF7UD80DL2BPsMomARTYV3YFJ4NM2EWHARHw/PgNHgRnA8XwJvgcrgaPgw3wefh63AvLINfwKMogFJC0VAGKCsUE8VGhaESUakoCWolqghVhqpG1aNaUR2oWygZ6iXqExqLpqDpaCu0GzoAHYPmoRehV6I3oivQh9BN6IvoW+h+9Aj6G4aM0cFYYlwxHEw8Jg2zGFOIKcMcwDRiLmF6MYOY91gsloZlYJ2xAdgEbAZ2GXYjdje2AduG7cYOYEdxOJwWzhLnjgvDcXG5uELcTtxh3DlcD24Q9xGvhNfH2+H98Il4EX4tvgxfiz+L78E/w48RVAkmBFdCGIFPWErYTNhPaCXcIAwSxohqRAbRnRhNzCCuIZYT64mXiA+Jb5WUlAyVXJQilIRKq5XKlY4qXVHqV/pEUidZkNikJJKUtIl0kNRGukd6SyaTTcle5ERyLnkTuYZ8gfyY/FGZomytzFHmK69SrlRuUu5RfqVCUDFRYanMV8lXKVM5rnJD5aUqQdVUla3KVV2pWql6UvWO6qgaRc1WLUwtW22jWq3aVbUhdZy6qbqvOl+9QH2f+gX1AQqKYkRhU3iUdZT9lEuUQSqWyqByqBnUYuoRahd1RENdw0EjVmOJRqXGGQ0ZDUUzpXFoWbTNtGO0PtrnGbozWDMEMzbMqJ/RM+OD5kxNL02BZpFmg2av5mctupavVqbWVq1mrUfaaG0L7Qjtxdp7tC9pv5xJnek2kzezaOaxmfd1YB0LnUidZTr7dDp1RnX1dP11xbo7dS/ovtSj6XnpZeiV6p3VG9an6HvoC/VL9c/pP6dr0Fn0LHo5/SJ9xEDHIMBAarDXoMtgzJBhGGO41rDB8JER0YhplGpUatRuNGKsbxxivNy4zvi+CcGEaZJussOkw+SDKcM0znS9abPpEEOTwWHkM+oYD83IZp5mi8yqzW6bY82Z5pnmu81vWsAWjhbpFpUWNyxhSydLoeVuy+5ZmFkus0SzqmfdsSJZsazyrOqs+q1p1sHWa62brV/NNp6dOHvr7I7Z32wcbbJs9ts8sFW3DbRda9tq+8bOwo5nV2l3255s72e/yr7F/rWDpYPAYY/DXUeKY4jjesd2x69Ozk4Sp3qnYWdj52TnXc53mFRmOHMj84oLxsXbZZXLaZdPrk6uua7HXP9ys3LLdKt1G5rDmCOYs3/OgLuhO9d9r7vMg+6R7PGzh8zTwJPrWe35xMvIi+91wOsZy5yVwTrMeuVt4y3xbvT+wHZlr2C3+aB8/H2KfLp81X1jfCt8H/sZ+qX51fmN+Dv6L/NvC8AEBAVsDbjD0eXwODWckUDnwBWBF4NIQVFBFUFPgi2CJcGtIXBIYMi2kIehJqGi0OYwEMYJ2xb2KJwRvij8VAQ2IjyiMuJppG3k8siOKErUgqjaqPfR3tGbox/EmMVIY9pjVWKTYmtiP8T5xJXEyeJnx6+Iv56gnSBMaEnEJcYmHkgcnes7d/vcwSTHpMKkvnmMeUvmXZ2vPT9r/pkFKgu4C44nY5LjkmuTv3DDuNXc0RROyq6UER6bt4P3gu/FL+UPC9wFJYJnqe6pJalDae5p29KG0z3Ty9JfCtnCCuHrjICMqowPmWGZBzPHs+KyGrLx2cnZJ0XqokzRxYV6C5cs7BZbigvFskWui7YvGpEESQ7kQDnzclpyqYgY6pSaSX+Q9ud55FXmfVwcu/j4ErUloiWdSy2Wblj6LN8v/5dl6GW8Ze3LDZavWd6/grVi70poZcrK9lVGqwpWDa72X31oDXFN5prf1tqsLVn7bl3cutYC3YLVBQM/+P9QV6hcKCm8s95tfdWP6B+FP3ZtsN+wc8O3In7RtWKb4rLiLxt5G6/9ZPtT+U/jm1I3dW122rxnC3aLaEvfVs+th0rUSvJLBraFbGsqpZcWlb7bvmD71TKHsqodxB3SHbLy4PKWncY7t+z8UpFe0VvpXdmwS2fXhl0fdvN39+zx2lNfpVtVXPX5Z+HPd/f6722qNq0u24fdl7fv6f7Y/R2/MH+pOaB9oPjA14Oig7JDkYcu1jjX1NTq1G6ug+ukdcOHkw7fPOJzpKXeqn5vA62h+Cg4Kj36/NfkX/uOBR1rP848Xn/C5MSuRkpjURPUtLRppDm9WdaS0NJ9MvBke6tba+Mp61MHTxucrjyjcWbzWeLZgrPj5/LPjbaJ216eTzs/0L6g/cGF+Au3L0Zc7LoUdOnKZb/LFzpYHeeuuF85fdX16slrzGvN152uN3U6djb+5vhbY5dTV9MN5xstN11utnbP6T7b49lz/pbPrcu3Obev94b2dvfF9N29k3RHdpd/d+he1r3X9/Pujz1Y/RDzsOiR6qOyxzqPq383/71B5iQ70+/T3/kk6smDAd7Aiz9y/vgyWPCU/LTsmf6zmiG7odPDfsM3n899PvhC/GLsZeGfan/uemX26sRfXn91jsSPDL6WvB5/s/Gt1tuD7xzetY+Gjz5+n/1+7EPRR62Phz4xP3V8jvv8bGzxF9yX8q/mX1u/BX17OJ49Pi7mSrgTUgCFDDg1FYA3BwEgJwBAuYnoh7mTGnrCoEndP0HgP/Gkzp4wJwDqESeXQuw2AI62TUpYZS8A5DIo2gvA9vaKMaV3J7S53LDIv5R6Rt9Tr/C+Uupq8A+b1O3f9f1PD+RV5dL/7/5faGkEp7VXrMIAAACWZVhJZk1NACoAAAAIAAUBEgADAAAAAQABAAABGgAFAAAAAQAAAEoBGwAFAAAAAQAAAFIBKAADAAAAAQACAACHaQAEAAAAAQAAAFoAAAAAAAAAkAAAAAEAAACQAAAAAQADkoYABwAAABIAAACEoAIABAAAAAEAAAB6oAMABAAAAAEAAAB4AAAAAEFTQ0lJAAAAU2NyZWVuc2hvdNcjg1QAAAAJcEhZcwAAFiUAABYlAUlSJPAAAALbaVRYdFhNTDpjb20uYWRvYmUueG1wAAAAAAA8eDp4bXBtZXRhIHhtbG5zOng9ImFkb2JlOm5zOm1ldGEvIiB4OnhtcHRrPSJYTVAgQ29yZSA2LjAuMCI+CiAgIDxyZGY6UkRGIHhtbG5zOnJkZj0iaHR0cDovL3d3dy53My5vcmcvMTk5OS8wMi8yMi1yZGYtc3ludGF4LW5zIyI+CiAgICAgIDxyZGY6RGVzY3JpcHRpb24gcmRmOmFib3V0PSIiCiAgICAgICAgICAgIHhtbG5zOmV4aWY9Imh0dHA6Ly9ucy5hZG9iZS5jb20vZXhpZi8xLjAvIgogICAgICAgICAgICB4bWxuczp0aWZmPSJodHRwOi8vbnMuYWRvYmUuY29tL3RpZmYvMS4wLyI+CiAgICAgICAgIDxleGlmOlVzZXJDb21tZW50PlNjcmVlbnNob3Q8L2V4aWY6VXNlckNvbW1lbnQ+CiAgICAgICAgIDxleGlmOlBpeGVsWERpbWVuc2lvbj4xMjI8L2V4aWY6UGl4ZWxYRGltZW5zaW9uPgogICAgICAgICA8ZXhpZjpQaXhlbFlEaW1lbnNpb24+MTIwPC9leGlmOlBpeGVsWURpbWVuc2lvbj4KICAgICAgICAgPHRpZmY6UmVzb2x1dGlvblVuaXQ+MjwvdGlmZjpSZXNvbHV0aW9uVW5pdD4KICAgICAgICAgPHRpZmY6WFJlc29sdXRpb24+MTQ0LzE8L3RpZmY6WFJlc29sdXRpb24+CiAgICAgICAgIDx0aWZmOllSZXNvbHV0aW9uPjE0NC8xPC90aWZmOllSZXNvbHV0aW9uPgogICAgICAgICA8dGlmZjpPcmllbnRhdGlvbj4xPC90aWZmOk9yaWVudGF0aW9uPgogICAgICA8L3JkZjpEZXNjcmlwdGlvbj4KICAgPC9yZGY6UkRGPgo8L3g6eG1wbWV0YT4KTY8npgAAE2NJREFUeAHtndluI8cVhosUSVHctVDLLPaMneQiNhDYyAvENwH8wAF8E79AEDuAnZvYGY9HOyXu+yLl/4psWZlhU02JGnYPuwyaVHd1dfX56+yneiL9wfDahO2Dp0D0g3/C8AEtBUKgV2QhhECvCNCxRT3nYHRlrq9Ddb8oejJOJBIx8bXF8OK9gf7ptGxenVfNSbVhqs2uGV5dLfIZw7EmFIhFo6aQSZqDQta83C2Y3+1v3Ys2kXmt7n/8fGy+e3ViGt3+vW4YXvQwCmSTCfPFywPz50+fzDWQZ6CPynXz9x9+MaV6a64bhJ0fhwLFXNp89fkL83Qr5+kGnoD+8c25+eZfP3saMOz0finw1z99aj57vnvnTe/U9D8elkKQ7yTj8jrAgGB0V5sJ9HGlYb75/qe7xgjPL5kCYARWs9pMoL/94dWsa8NzPqLAXVi5Av1PWdZntdDw8hGWM6cCVmDm1lyB/v7Vqds14XGfUmAWZlOBJhBSbXd9+jjhtNwoAGZgN61NBfp1aXrnaQOEx/xFATfspgJ9Um36a/bhbDxTwA27qUBXWx3PA4cd/UUBN+ymAt0dDP01+3A2ninght1UoMNso2e6+q6jG3ZTgfbd7MMJPZgCIdAPJmEwBgiBDgZOD55lCPSDSRiMAe5dShSMx/M+S+qzaM439W8fUg1cCLTABdDhaGSuVPfG7wj/RSNmbW3NRCcLwK6CAP9v5YGGg/uDgWm0W6bV6ZjRcGRBXk8kTD6bNRvrSYHNYggwypr6SgMNF7c6bVOp1025WjONVssMh0MLNABvFQpmu5A3mVTarMfjN2I9iJCvJNCO/gXYw9NTc3p+buqNhun1exLfEt3i8pjE9mW5bGo7O+b5kwOznS+YOGAHEeVV5WikcFNi+lxAHp6emFLpQiJ7aGLxmEnEE2akzQhtnW+321asx2Jx6euY6qszOh8PJNQrx9Fw6/XVyFxWq+b47MxUKlVx8cik0hmzuVkw2XTaglvW8Zr6NMTpJ+dnZj0RN0mBHAIdkHUO0IjnqvTyxeWl6YpzUwL3YH/PPNnbM5mNDTOQQZaTIfazdHitWtFiqFjDbHd7+0ZPB831WjmOZj0CUlNiud1s6veVyeey5vnBgXm2v2/WIuMYUj6bMXB1s1YzPS2Gjj4YakFtqwc0rpLQusJv1icSXTOJxLpJJZNypdbtIsB3vrpOmmRy3US0yW006JuBXLBRgPeXrR7QAhnLOarNa1FZ1oA3EJBwOFZ4LCaSiOPxq7HC+R2hrxYEYj+obfWAFjtb90mGFZGvfr9vqvKhD09OBfrIGmMDFV6UZJGXyxW7EJIbKZNKpUycRRDQFtyZ34fgYsiugK1I76JzCXkivlvS1aeywLu9rkmnU1YXV6p105DBBjdvyRrf1icpER80I8wh08oAjV4eilMB+fXxsSJhFcvN1wJ7KP3bbI4DJgRKcLf6/YEZdAV8Lme2t7YE9KZZX084dAvc90oADcgAV6lLRItzD0+OTaNWV5BkYAFbk0h2ol4dgTsS19sEx2hodXlScW8+bEoPavvggQZkLOZqo25+PTkxR/pUpX8HPTbyR0xClnVGPnNWnIu1XVOApCWR3et2sMOko69llA0s949kmaPXg9g+eKD7sqgR10dn5+ZI4c6KQO53ZU1LZCcUHNna3jF7u0Wzmc9b/YsRdiqE+72ejLYrGxpttJqmLos8LYMsjIwtaZlfCRSCHrRxHjlq3SerkxXgqIpD35xKXKOXy5dm0NFWI3FuTD5zXtmpj549Nc8ULMkKxIH6JySiOwK5JsCv1W+ohVKTmK/lG2ZLiyGtxRHEFjiOdnxZvvGBcY96AoNG4iEpAOOxNWt4XcjgeiO3CXFtQRYnY2VHpZO3lJX6+Nkz81RhTydZQSoS3XwhUX4swOlLsqMJR9vslnS3FlYQixECBTTgwnU9gUuxQEfuEFmorjgQtyehLNPGJMLF+ZPzks1OoZP76kdIbE1gbgjIJwp3EvYs6Lc1xDQ2+pfrM4p9b+hDyBPDjBBoi8IE6W3GTSjLFZ2ESoPC3YEBGpDhNvTlmZIR55fKFcto6mIlyzpGVMNpcPVGcsMWDzTlH7fEiQP0rc7jE6clfp8/fWoOdndtcIQgCOcc/5gxCIfm8znT00LqCthrcTb3qTWaWhhtm+BYiykLpsUVlBYIoAEZLqYS5PSipEKBkkRx2bSpCEFsyzKG5OoGmiYusUuI03IkQAmQNeWZM7Ks9ySqPxInb+XyU6tGuC4jfb0rI61Rl2/dbNkF1un0TEVpSyQA5xUrDQrGdp6BcAzRxVi9r4+OzC9v3pgz+cJNgT4Q+NcCWaxsuVUo62/FrsXBPXEggRD+hpNTiniRivz4yRNTVAAktaFaMB1/u8HRFmj6CFDi4bS+uLsm6530pi03sqvq7av9+7fvl+VIYrMt0C6UE7aFArKccY+wtKMS03EZX1jKa0o6DCXCu0pOYEABsG0CMya9jK+8L3G9p5wyonkayPRHemCU5VRNkkpt2GsBlkXT0mJr6tPTb9RIkJp/gbaKU5wkIpfFSWcXF6au777cI8Q0qUUMJgBM6xtDjGxTdVIV0tfisGlIAUfkK6liv6yK/GaB7AAHF1MFmlZ/xygbSnogKSgxoqAwo0QHVSdBab4FGp8YzYuVTdnPheXkMXgxgZBX7HlPHLopX5iqENKLfYU0q0o+4E5dqA4Ma1msbwG3+loxbNyjCJ8Zopc1tiZJgD7Oy3hjHIC20kW/qRhNJwmeKJqmfkEwynwLNJwC5wIQMWr0o038CyDEdVF+8CcffWSDGDeWs/oXC5uW8LhciHC4EF1OtqrZlium3yldPwtogOP8pizvenPT1o51JLJRB+1WW4uuLMtbNWY6H5Tma6AhIrXXHYnrvkCiWTEsDs5Kh+YksqkKcZoFT/qX0tzapixm6XI4UQrVciPBFeLe11wDRwtQtwZH5yS687LUqTSxRQpaOF350hUFYhpaaPb6iYpxG8cvx981O/0ys5t5aLuMCHytD4SF4AQ4MJgQ14ALBzof/iY65sSlLfgai/OoARYO49jPzT3e/eGMk9WiSglwpAjW+0gLpSOuphrFSg2VBgehBQBosQzcx0cNwABp7DlP4UidQ5cCKqKeHnzQzfw9j7UM2Osy+rIYfJIgSBPEt81fC+yyXC38+ymzYKq+ar4HGnzjCjlCZMAGKIjbkjhvI5oFKoBgFPEN0duERsVxfaUi7cLQMUQxOWWbfWJQPh5aQpZ1QVWi2UzWulpcwkLC1cLlg6vvkg4ebvPoXXwPNP5xSuIzIfGJ6LwSp5Irrso4K1UUBlWIk2wTBMffrinsiVVsXTEBDgiOuCfzRCybBeEVnIQWWEEg52R8sYuDxmIjKnehmjLubS15jwvn0RF1uYGPjbGxQMSiLihcWc3XzSV7owQ0RQOXlxfiXlVrKkRJcIOMFYGMqlKKp8o9N7UAsLoBNU45r6JcAI1u99qQBtgB7N7gHusTo4zjXTbnye1jcQH8tRahn5tvgRYtbbIBw2tHvjKisqW6LoIgfCgF6gnwuuLRmYyMJfXjb7bRdBQdw9oGEEDOyg1iZ6QTLHHEuRdgrMiXIZZRCJUwKkYZwZihOLmlBAsqAq5GddDXr823QDsEg6Op/kA0I6bhHifMybcTmiTFiO4kuEG2iWZj3FoEBFbYboPYvk8DQLbR5rI5U0sr1q1ECvfCAiebhgWOiI9imd/nBu/hGt8DDZERuTtKMpB7hs+rMoI6Ep0QGqCtr+wQS6KawgJE7roSF8Xijt1qw76puBbDPNzsDIndjsvGgmvIBsCX7smtQi0MtU8L9w89bfW+T3W174GG2HAJ/uwLZZ7SSjSclTLmfBL7piQXDgZAOBjrnFqwgkT1XrGovHNxvLdZIFsj7Df0PP1iXDDEYt9S8ITgDZ+q3Oc1eQOAv0nKU+fvM76nSSygUyCA5jnRwdRsWV1IzllEJjqGq4UYRaRHdJzqD7JZbJx7urtnU5KI1Yc0a9BpDAwy/n0vdnREtSerJ3WyLk5nLrbihBU5tiEfcrtHufZhFHiUKbkPasHUaQrp93eK5klx11aVIDbJcgEIoGIJw4njkh+lR3T8fiL7t7mwwBDfu+SpAVf3oVSJkCrvPkHF2Jj75F5+4+5AAQ3Z7XtHFPeuy60a2AJ8dKN05cQAi8WiVrTCZRv6x8AKMqBQm4jfhzaKEnDPInK3dpQ9456Aj0QhWYJ7B0vHlSdHlLM4HrrAHjpn5/rAAT0QUbFyT89ObVDkSsUGKjG5ISg1e2y9SUt0byuTNdomFr04mQpwcKtThYJKAVCKBlEjFD8AfiGSkwrxzztPAgc0lSVYuWydYXMclrdlWWfp6hvjjGpP+i2yAfIV99f4WPW8FQFRwXGOUZTQkMs33r6zZrIRFURoHn5ogQPaEg0G/f8fzoHJYXVAXi+4AWhXQRl0MpqADXnOBnnO2Xy5jju/rcu14Dncd7hgAn07LCFA3zZ82GGx6MY9AA6uLcmP528CMC1q1MTN6GTEeFGuHaKbKBwLwS8toEAvh3xwak/qgLcjACJiGd2MisDqxv3C1wZov7UQ6DkQgYtxoYjUwbFY3vwmPMs5gCcU61jbLAy/tBDoOZAARAoRI/KlrWUtY4xSJrga/cwicMQ1wPMBbD8AHgLtEWinOgUgca3gWgwzUqUsAPLmmA435Uoalz6Ajf+97BYCfQcCAIURxg6NE+LrpErZHWKlsiOabwM5PoZhRhy8OBHvcPsy23LvPu+TW86g4nscAnG/fExsKz7dO3k/I6DZEvTr4aEp6XWRdhuQC9BwOG1dOnxfe7wIyaK7bSGj9zsuvGewgJ4QcUzKu2mBLeS1712jEW4lNdrSjkrabR6+fe34fuMCRXLVWOhw9rJbYIAmtNhRMSD5YN66a+uzXWCE56+UL2brTF3ERkc6CYcHEZyV4zQXvUt54rVi7zTeEkyyhWTMspuvgYasEImABNEo3mBwrHdr8x7trnLCiFDE8ztNx4biQHZUUHw/3BmafCanoMY4Ls0lYwXwzpULO8Dc/WJx81C+BdqmHuW2ENMmiVFWjVhJ+6/YF03hn60qmby7ZBo6xMB5MQ0LhUIBKlQIaGAxk2bEUn7MxvKzn2kL8TFv7DK274B2uMBWdArQc73d4LRUshWXvHKZvVRwuBB0eSQRWMRlHNvfvmxGuzE1xs7OtjlQ1cne1rb1g3GVrMHmEzBcH2gBJ3wFNL4qAFNZydsNKJDnndpshe3qGNWftKni+m1iCGhKg680Hm8i4h0mtvabXLYMKqpC+cdRiGxhGXsa8+17BOhvXwFNsKEuY+tIr4s60r91UZVO7k2SBmLRucGw4E24lRrvhhZOWwvoXHp+n5fVqAYNDh8bakLtlq0VIAw9TdUXQAMIopbEvX0zvnZgAHJHoPNeTgBYBMchEchVo7fLAp0dIJviat4xpvgV9rInos3TiefyQ/MF0BACcsDRWNcU6yNqEb1C2NJpUQQDTABnp4XdnyXR7mlsTdBiNgHuLvicMcezt4+w1P/5BmioAHHYrWi/OSCQF8HJDHW7jSXI5H5zcBzX3cxnsgBvj3v7N6XHvMzdRsToy33uuOb29Yv+7RugWfnkdCmfZW9zXyKVoMgNYRf15BBc90kqRInoBggvjTAm70rhPWVW/LiwqrNuqFTNqW4Nd46NA8sEmefz9pReKPGAPo6YIxHAhrYd7aoAcET5woHWPAmWUBFS0J4s6ru83INFsasS45h2VFI35tomMp3a8t3tLRX352zlicu6cB1m0Sd8AbTzULxZiPdyYgUTH8ZoeiwC4UNTCuRso3UWmzMX55vjLATcMHZ9sDGAed3VbPGgFi0cjaRadvMV0HbD+5peESWi2sI6Rw4+BpUEHgDw8ZIvtpWd8r0LgOxhXiyOcZ56nJN+jEeYZ0xfAQ3Bo9rnrJcsexKn8zzotL7W6PMAGtdSRLA+iaRNG+vtY9ZVkxh3kxRv93/sv30FtH1YiMN/HgF4bALdHn+ehXH7Oj/8Xr7y8AMVVmAOIdArADKPGAIdAr0iFFiRxww5OgR6RSiwIo8ZcnQI9IpQYEUeM+ToEOgVocCKPGbI0SHQK0KBFXnMkKNXGWgvFRcrQp/APaYbdlM5eiPhv+xl4Ci+pAm7YTcV6M10MP+N5CXR1le3dcNuKtAHmxlfTT6cjHcKuGE3FeiXu5veRw57+ooCbthNBfr5ds7sZPVP54YtUBQAM7Cb1qYCTccvPzmY1j885mMKzMLMFejPn++a5zvLf/eGj+nqq6mBFZi5NVegueCrz15oO8nMLm7jhsffIwXACKxmtZkobkvmf/3lH2ZdH57zAQXACKxmtUh/MJzsFnLv9t+zivnbd//RG3bGbxxw7xmeeZ8USGizw9df/N58sne3l+QJaCZfbnbMtz++Mq9Ltff5LOG9XCjwcTFv/vLZS7OV8Rbc8gy0c79/H5bMd69OzVlt/GI153j4/X4osJfPmC9e7ps/PivOdcO5gXZGP6k0zC+lqjmpNE2l1TVd++YA52z4vQgKaCuaSfJO0XTSEPF6USzoW/+8wz3avYG+x73CS5ZIgZlW9xLnFd56wRQIgV4wQf063P8AoXJUXThS5L8AAAAASUVORK5CYII=;fontSize=14;" vertex="1" parent="1">
          <mxGeometry x="438" y="431.28" width="122" height="120" as="geometry" />
        </mxCell>
        <mxCell id="w1OrHkaXiFYTRzztFPkm-15" value="GraphQL Connector&#xa;Shopify" style="shape=image;verticalLabelPosition=bottom;labelBackgroundColor=default;verticalAlign=top;aspect=fixed;imageAspect=0;image=data:image/png,iVBORw0KGgoAAAANSUhEUgAAAIQAAACQCAYAAADJA8MqAAAKpmlDQ1BJQ0MgUHJvZmlsZQAASImVlwdUU9kWhs+96SGhJURASqihCNIJICWEFnpvohKSAKHEGAgqdmVwBMeCiAgqIzoqoOCoFLEhFiwMCgp2J8igoI6DBRsq7wYWwZm33nvr7ayT/a2dffbZ595z1voDABnNFYuzYFUAskW5kkh/b3p8QiIdNwTwQBmoIR8nLi9HzAoPDwaITfm/2/s+AMn9LSt5rX///b+aGl+QwwMACkc4hZ/Dy0b4BDJkPLEkFwBUKRI3WpwrlnMLwlQJ0iDCnXJOm2SZnFMm+d1ETnQkGwA0HgA8icuVpAFAoiJxeh4vDalDckDYRsQXihDmI+yRnb0Q8aT9CJshOWKE5fWZKd/VSftbzRRFTS43TcGTe5kwvI8wR5zFXfp/Po7/bdlZ0qk1TJFBSpcERMrXQ57Z3cyFQQoWpYSGTbGQP9mTnNOlATFTzMthJ04xn+sTpJibFRo8xalCP46iTi4neooFOb5RUyxZGKlYK1XCZk0xVzK9rjQzRhFPF3AU9fPTo+OmOE8YGzrFOZlRQdM5bEVcIo1U9C8Q+XtPr+un2Ht2znf7FXIUc3PTowMUe+dO9y8QsaZr5sQreuMLfHync2IU+eJcb8Va4qxwRb4gy18Rz8mLUszNRQ7k9NxwxTPM4AaGTzEQghDABbxcwZJcefPsheKlEmFaei6dhdwqAZ0j4lnPotvZ2CGnV35HJ4/AW9rE3YNo16ZjBcj78kCPj4+fmo4FRQBwbAsAxI7pGGMOACrIfb1Sy5NK8iZjaPkXBhCBCqACLaAHjIAZsAJ2wAm4AS/gCwJBGIgGCWA+4IF0kA0kYDFYDtaAQlAMtoDtoAJUgX3gEDgCjoFmcBqcB5fBdXAT9IIHQAYGwQswAt6DMQiCcBAZokBakD5kAllCdhAT8oB8oWAoEkqAkqE0SARJoeXQOqgYKoEqoL1QDfQrdBI6D12FuqF7UD80DL2BPsMomARTYV3YFJ4NM2EWHARHw/PgNHgRnA8XwJvgcrgaPgw3wefh63AvLINfwKMogFJC0VAGKCsUE8VGhaESUakoCWolqghVhqpG1aNaUR2oWygZ6iXqExqLpqDpaCu0GzoAHYPmoRehV6I3oivQh9BN6IvoW+h+9Aj6G4aM0cFYYlwxHEw8Jg2zGFOIKcMcwDRiLmF6MYOY91gsloZlYJ2xAdgEbAZ2GXYjdje2AduG7cYOYEdxOJwWzhLnjgvDcXG5uELcTtxh3DlcD24Q9xGvhNfH2+H98Il4EX4tvgxfiz+L78E/w48RVAkmBFdCGIFPWErYTNhPaCXcIAwSxohqRAbRnRhNzCCuIZYT64mXiA+Jb5WUlAyVXJQilIRKq5XKlY4qXVHqV/pEUidZkNikJJKUtIl0kNRGukd6SyaTTcle5ERyLnkTuYZ8gfyY/FGZomytzFHmK69SrlRuUu5RfqVCUDFRYanMV8lXKVM5rnJD5aUqQdVUla3KVV2pWql6UvWO6qgaRc1WLUwtW22jWq3aVbUhdZy6qbqvOl+9QH2f+gX1AQqKYkRhU3iUdZT9lEuUQSqWyqByqBnUYuoRahd1RENdw0EjVmOJRqXGGQ0ZDUUzpXFoWbTNtGO0PtrnGbozWDMEMzbMqJ/RM+OD5kxNL02BZpFmg2av5mctupavVqbWVq1mrUfaaG0L7Qjtxdp7tC9pv5xJnek2kzezaOaxmfd1YB0LnUidZTr7dDp1RnX1dP11xbo7dS/ovtSj6XnpZeiV6p3VG9an6HvoC/VL9c/pP6dr0Fn0LHo5/SJ9xEDHIMBAarDXoMtgzJBhGGO41rDB8JER0YhplGpUatRuNGKsbxxivNy4zvi+CcGEaZJussOkw+SDKcM0znS9abPpEEOTwWHkM+oYD83IZp5mi8yqzW6bY82Z5pnmu81vWsAWjhbpFpUWNyxhSydLoeVuy+5ZmFkus0SzqmfdsSJZsazyrOqs+q1p1sHWa62brV/NNp6dOHvr7I7Z32wcbbJs9ts8sFW3DbRda9tq+8bOwo5nV2l3255s72e/yr7F/rWDpYPAYY/DXUeKY4jjesd2x69Ozk4Sp3qnYWdj52TnXc53mFRmOHMj84oLxsXbZZXLaZdPrk6uua7HXP9ys3LLdKt1G5rDmCOYs3/OgLuhO9d9r7vMg+6R7PGzh8zTwJPrWe35xMvIi+91wOsZy5yVwTrMeuVt4y3xbvT+wHZlr2C3+aB8/H2KfLp81X1jfCt8H/sZ+qX51fmN+Dv6L/NvC8AEBAVsDbjD0eXwODWckUDnwBWBF4NIQVFBFUFPgi2CJcGtIXBIYMi2kIehJqGi0OYwEMYJ2xb2KJwRvij8VAQ2IjyiMuJppG3k8siOKErUgqjaqPfR3tGbox/EmMVIY9pjVWKTYmtiP8T5xJXEyeJnx6+Iv56gnSBMaEnEJcYmHkgcnes7d/vcwSTHpMKkvnmMeUvmXZ2vPT9r/pkFKgu4C44nY5LjkmuTv3DDuNXc0RROyq6UER6bt4P3gu/FL+UPC9wFJYJnqe6pJalDae5p29KG0z3Ty9JfCtnCCuHrjICMqowPmWGZBzPHs+KyGrLx2cnZJ0XqokzRxYV6C5cs7BZbigvFskWui7YvGpEESQ7kQDnzclpyqYgY6pSaSX+Q9ud55FXmfVwcu/j4ErUloiWdSy2Wblj6LN8v/5dl6GW8Ze3LDZavWd6/grVi70poZcrK9lVGqwpWDa72X31oDXFN5prf1tqsLVn7bl3cutYC3YLVBQM/+P9QV6hcKCm8s95tfdWP6B+FP3ZtsN+wc8O3In7RtWKb4rLiLxt5G6/9ZPtT+U/jm1I3dW122rxnC3aLaEvfVs+th0rUSvJLBraFbGsqpZcWlb7bvmD71TKHsqodxB3SHbLy4PKWncY7t+z8UpFe0VvpXdmwS2fXhl0fdvN39+zx2lNfpVtVXPX5Z+HPd/f6722qNq0u24fdl7fv6f7Y/R2/MH+pOaB9oPjA14Oig7JDkYcu1jjX1NTq1G6ug+ukdcOHkw7fPOJzpKXeqn5vA62h+Cg4Kj36/NfkX/uOBR1rP848Xn/C5MSuRkpjURPUtLRppDm9WdaS0NJ9MvBke6tba+Mp61MHTxucrjyjcWbzWeLZgrPj5/LPjbaJ216eTzs/0L6g/cGF+Au3L0Zc7LoUdOnKZb/LFzpYHeeuuF85fdX16slrzGvN152uN3U6djb+5vhbY5dTV9MN5xstN11utnbP6T7b49lz/pbPrcu3Obev94b2dvfF9N29k3RHdpd/d+he1r3X9/Pujz1Y/RDzsOiR6qOyxzqPq383/71B5iQ70+/T3/kk6smDAd7Aiz9y/vgyWPCU/LTsmf6zmiG7odPDfsM3n899PvhC/GLsZeGfan/uemX26sRfXn91jsSPDL6WvB5/s/Gt1tuD7xzetY+Gjz5+n/1+7EPRR62Phz4xP3V8jvv8bGzxF9yX8q/mX1u/BX17OJ49Pi7mSrgTUgCFDDg1FYA3BwEgJwBAuYnoh7mTGnrCoEndP0HgP/Gkzp4wJwDqESeXQuw2AI62TUpYZS8A5DIo2gvA9vaKMaV3J7S53LDIv5R6Rt9Tr/C+Uupq8A+b1O3f9f1PD+RV5dL/7/5faGkEp7VXrMIAAACWZVhJZk1NACoAAAAIAAUBEgADAAAAAQABAAABGgAFAAAAAQAAAEoBGwAFAAAAAQAAAFIBKAADAAAAAQACAACHaQAEAAAAAQAAAFoAAAAAAAAAkAAAAAEAAACQAAAAAQADkoYABwAAABIAAACEoAIABAAAAAEAAACEoAMABAAAAAEAAACQAAAAAEFTQ0lJAAAAU2NyZWVuc2hvdPtkz+cAAAAJcEhZcwAAFiUAABYlAUlSJPAAAALbaVRYdFhNTDpjb20uYWRvYmUueG1wAAAAAAA8eDp4bXBtZXRhIHhtbG5zOng9ImFkb2JlOm5zOm1ldGEvIiB4OnhtcHRrPSJYTVAgQ29yZSA2LjAuMCI+CiAgIDxyZGY6UkRGIHhtbG5zOnJkZj0iaHR0cDovL3d3dy53My5vcmcvMTk5OS8wMi8yMi1yZGYtc3ludGF4LW5zIyI+CiAgICAgIDxyZGY6RGVzY3JpcHRpb24gcmRmOmFib3V0PSIiCiAgICAgICAgICAgIHhtbG5zOmV4aWY9Imh0dHA6Ly9ucy5hZG9iZS5jb20vZXhpZi8xLjAvIgogICAgICAgICAgICB4bWxuczp0aWZmPSJodHRwOi8vbnMuYWRvYmUuY29tL3RpZmYvMS4wLyI+CiAgICAgICAgIDxleGlmOlVzZXJDb21tZW50PlNjcmVlbnNob3Q8L2V4aWY6VXNlckNvbW1lbnQ+CiAgICAgICAgIDxleGlmOlBpeGVsWERpbWVuc2lvbj4xMzI8L2V4aWY6UGl4ZWxYRGltZW5zaW9uPgogICAgICAgICA8ZXhpZjpQaXhlbFlEaW1lbnNpb24+MTQ0PC9leGlmOlBpeGVsWURpbWVuc2lvbj4KICAgICAgICAgPHRpZmY6UmVzb2x1dGlvblVuaXQ+MjwvdGlmZjpSZXNvbHV0aW9uVW5pdD4KICAgICAgICAgPHRpZmY6WFJlc29sdXRpb24+MTQ0LzE8L3RpZmY6WFJlc29sdXRpb24+CiAgICAgICAgIDx0aWZmOllSZXNvbHV0aW9uPjE0NC8xPC90aWZmOllSZXNvbHV0aW9uPgogICAgICAgICA8dGlmZjpPcmllbnRhdGlvbj4xPC90aWZmOk9yaWVudGF0aW9uPgogICAgICA8L3JkZjpEZXNjcmlwdGlvbj4KICAgPC9yZGY6UkRGPgo8L3g6eG1wbWV0YT4KcWQZ3QAAKdBJREFUeAHtnQmUpFd131+vVV29z6rZNDPaVxBCGwgJhGQJ2ywJJrHDwSQhnBif4+OQ44RzvMDJCYlD8EniECcGx0nIcuIEZIjtEAQSMkI7WkFoGbSNZjRbz9ZLLd3V3dX5/+5Xr+qr6qrq+qqqq7vHdaXp2r7vvfvuu+++u737dWXnF5ZcBzoUyFOgu0OJDgXCFOgwRJganfeuwxAdJiihQIchSsjR+dBhiA4PlFCgt+RTAx9yswvOdeyUBihX45Yu57rjTU9NjQ6q/xS51+SjR1zqqeMu89Jplz2adEvZxeqtd35pmAJd/T2uf+eQG7hssxt8+3lu6B27Gm4ryo1d9fohznzjgDv75y+7hVOZKO13rm0RBXq3DLjxD17sNn340ha1WLmZFRki8/wpd+Irz7i51yYrt7COv11a0l5m21n5niaZzP9d+rPBIHbBmNv+K29zA1duWRXMazLE1H0H3fHff2JVOl6tRo0JaFyT3R3rcd3DMdc7GnPdA33WZS497xam51xuRv/mtN3BNHb5xmKO8z59vRu9Y5/h3so/VXWIqe9tQGbIa7fdiX7Xv2fEDVwy7uJ7R13f+IAYIhhqLrPg5s9m3Owb0y7z0zMue3ja5dJZ3bkkobFxmMIWqtAdvb21TFGRITIvnnLH/83Gkgze1OnbOugSV211Q1LEBi7Z5Pq3JlwPGnt3frJzS25RllH2ZNoYIikFOf2Tk27+VEoLDWmxgZhCc2SK5+Wt2z4qMsTEV55tpRRqS1tI/t5NA27oxl1u7LbzXeLC8YJUKEFAjNGT6HMDkhyxbYOuf8eQ6x7sdzOPHHYLZzLsNBsKmKu9v39Hy3Be5pjCkph95WzLOmhHQ+gNmGmD1+5wm+7c7wYv3VyZGcqQYRvhWrtH99JGQQcpu3a9fmSumLNWwXKG+ItXWtV2W9vp3zXixm/fK51hxHX1LRtWVVy4lnu4lzY2Ipxt4ZyVUA6H0/yx5IaiiUmHnm5tFTtdfP9YQx4+vILcSxtdamujSQnmjLlrBSxjiFY02tY2tOn3jMbd0Fu3uZ68JdFI/9xrbaitDadIaMCrwhCzMsM2Fkh3EEv3bh4wBbGrr6dh9LkXJZO2aNNbLQ032OYbWzV3JRKC2MSGA6yG4X5TIoOJbGwE3IuSSVsFE7WxptbkrlbNXQlDLM5k12QwTXeKj6EV9iImp/dXNI1Uexto1dyVMIR347Z3KE30hh9J/3LpBZebX2wKffwYufmctWX+KdreSJB3wTeLcilDNNtaO++HAFrR3TGJ+RGJ+VaAmuwZ7nPd8keYxGkRkVuBWrvaqOipbFfnjfXD0lXUAUYYj7uBC8bd8Dt3u57BvqZ2DXacnqE+N/KuPVIqu9zsa2fdwuSsc9mc+gv6bAzfjXXXhmIIC0DJT9AzRPBq1OIVwzftkht6WJPYpLATR/Sq3U137HUDF4276UePutQzx1z20JRbTM67pcWcGA4l49yGDcEQgaNI4WyJ8r4dw8og2uFGb9ntBjVxuJsLoMCVxaaiThxbA0JAkgHGSijnIL5r2KWv2eqmHnxTNv4xc9ihpwDnMmOse4ZYyk8ygStSycbercCV0spsiwhZBKzg7ETamMbM0DCj2DRW/pNTCuBiUuHvuZzr2yYfhCQQQC7FoKKIcYXRU9dud1PfP+xSTx9zCwqdgxPbyrkI65YhClJBkcjBa7ZLIuwRI2xyfWIMJssrDEzOwtlZd/bhN1324HQgOS7fXP9c6f7ZQ9Nu6qEjLqatZ+zm3a53LG4TzqT3yi8x/JZtLrZTEuPtYgxJjPSzJ1wuM68+xBhRpVH9mK3JleuOIYwRRGRC0nGFsIeVXDqk/IYYYWqFrbt6gpW5tChGmJp1yZ+ccjNK/M28csYNXb/TGMZvI0sLObcokxTpYUwkEpMlRRs9yqAisMW1nskIEs2+eNoN3bRbfW5WppUYQ9cS66D/3pGYSYzk1VutTxRPMrCwd88VxlgXDIGyaHu4JoxJj0lhTGhVDksyxC8YtYno6s0rjVrR81NzLvPqWZfUSk0/d1JZT1OuV4kxQ5qovq24nrvEBMHKn37sqJs/mbIcCJbcoiawd0vCjaCM7lNkVFtEnxJYB6/e4pLSFWYeO+Lmjsy42Ze3uSH1P3DhmKXgwRi9Mm97EmOuT+5t8ilm1H/qRydc9k2yrpAYAvHrRsq8CpAu/m0ZQ5RECFHQgNA2W3UF5W397v5e13ee0s6v2KwgkyZC2U6x7YMloewF7fVzEu8pZTilfjxhpuGitgviEMNKjBmQRLHsKHWNyZj80YSbvO91Z9f0Bwy1JDOyW1sCwaw+5VrCDLzn3mFFO89884AjLjCvjKrZg5Nu8C3b3SASSrpEr8xSGBOGQFr0nTfoBvaPWj9kmc0fT7lcVudU4O4qW0nDdIKebYDmGUITyvyz0vANdA/02ASB+5K08lxGHsS5QGwbfxQIlZcKrNDNCReXxTAoqTB4VaDIhQ+q5HT/nIid1lmQ1LMTej3lFiZS1r4FpeSLGHnHTu39MbMU2CpmX59yyWeOu+yxGe0T6itdpObi7Lx+O+Fi52uSdQ+TTCLuiLanlJho9uXTOm6QciltSdkjSbUlxpC0QIeJbdfWJR3G8ih2D7t+MRTMkto3GjCpElbIvHLapoIFkV8VK9JJNNJ2ZuYtqBboVMS7He+aYgi4vau3x4jZr9XSL5OQaCEWAFyCeF44ndakJF1WE7ooAjNZSIsl/cMaKGwP0uTjMvfwBRjALyLqvFb67KuTNrlJMUP26IwxmF0jE7FnJG6OKZJpu/PRzvnTGZMisy8reitmKJdOKKL8lpL+Eds94mLCnXvjYpBhKZXzYjYmFVyzR6aVbylpIaaYE1MMvQ08x10fjCRmhnETFyt3UzoGUmZGeQmpnwhPSbLFVNZ1MQ6jE0wXdwGdpI9oERidNJDFVJ5OCi5mTyRFp7kCnQJitO9vwwzBICFGvwjKyh66VkmtmlCcRl29wapgQhcUMMu8xmrVfs9+qwmFWfq0jyeu2GpWQeLSTabN+1XBfRBpTozEfdNYEHIQ2bHBPG3ooYvEFkmWUU2iSRR9uaR4REqKYerHJ7RVVD9UtDgpphE+MFI/IW8pmLRBW5nnJnS/nFGyJISqMeCcFMh54Q4TjbxLSqeYA0WzZ7DXGANrZFA6TEySIqEzE9MPyRrRNrIgZgLXfvk1EtoKYagB9CJd703cJdVswfTNiPFnnlbSr3DPSo9hvOXMnB/+qr00xBDGDNLO45dtceN3XeBG5B8gnlCOPAPu36y9WqZiQjpBUv+mfnBI3L/kRt+z141ctz1gIG/Ti8nwC8zrdFjyuVNuUkcBZrU9BPsyUjRgNIti6R72clZ0fNdQgUBzJ1KmbM4enLLLCvcUrgjaYQxzb4hRpRjimYzvwdvZ5eI6Pjd88x6bkOxRTQjbTb5fJmj2p6dc9g1JrKdOuDGl3Q1pi0MPwWnG/eglI9fvkA9js5t+8rj8F2/YxI++e4+Y4TxTTMtx6pIV3R2TXrJJrngtjpmLx93Z77wui+ek0aP8+tBQWv42MkNASJZN7OItbsuHL3PDylTqjoe8hRVQZEAQalR7NKuoS23gaIKAHmh3YTqrlXnSTd5/UNbDhFvUgRqWVyWCYJYOyHE0KkXQA5IFkZ1+XoSUuF4JuIZrZ5Q+F9shBTZvyYzcsMP6x6zNhVICPB7oNOlnj7m518+6GUnHsffutXHZqtdYGRdK5/h7zpcPY6ttj2yF3vSthpenE76QHo3v5P/OuczzEyL38m2vWhvNfh+ZIWCGPmUWbXof2c2bVhxkGEFzPSsgBYSZAV0DMT/9sA4SS1zOax9F9FdiBmNIEbxfCh0+CpRBDxmt+JQUSRROwE+g/z38ym+0hb6A8onZSeo+QJsEzObenHGZA6eW6SF2rwixqNNfySdkpqrfQW0HI7pn8PJNBRPXGEOMD9TCxS4I/SGCOygFdvF9F7gJmczgGCiooYtW6W0khoCADDJhGrfcx4Sdi4t8ZRTLVjsnx1PSymd+eCyw59k3cSNrpRsB86LaN2zMoA+9m6R/XC2L5IotBcZCnMNQszqDirZezwTYNcJhTgoj9xK/QI9gjIj8tFY/CuWCJsXGHsLHt09f6BbTkma0k5bEHL5hpzFXl0zdMOP7caz4Kjr1SMIkhAO0npbpXN7/im00eEEkhmD2OSaHYtSn/a6hwYIo24OUxskHDruZx7XCREj8BkgFtHJP7Epjwsw0D6aUWMSyge5JyXdg0gFFUu2rkUq3L/8OXHSPSQkmU0wAk5uUUB9Z9AzDrXLZA8NVTjC2t4zMVU6AwZRDcnyN37pH0kIkrheXEHbQFhpD6+Qjb5rFEvp51d5Gihn7hFYz8STWGgXmizOWM48fDfZqrUCnlWpTWHUedZOgT86qQe3LWDTmxpbStyDRjVaPiA+2mqqNLEdZk8U9aPVTD+n0FnoLpqomBGsACwpTMYAAh2WNqDvrUWNgu2Lbw+O5qDEy1kaBrQNaB4m/EcbUaIe6LxJDMOoecW1gMjWJoAiOnY7zCr1kpVUEYRHnCSmSeA5xIwOkvaVUsiAlc43tBgkTFbiHe9NqI6m2fJjbTElZESiv9L3i5CIJ1BZjwowMuCQqNsXrzV0u87QHPaRJchdbrf0uIkMEgR5bmU0giJjtxu4PRS1ro8mvUiR3yuchsY4DCQYiXoGJOvmDw1JEtc9L92iIcMyj7kV5wyzOqs2grS45zuhze/5UV52DZnwaG2Ostf2tOGZ1h6RCUqy0YFZsq84LojGE2B/xajkKdXZQ8TItNSYTf0Q9gELVrb04cc02l9BZTA7rAkiYlMzGtIJSrOpmiM+9jA0pgfMJxxhAXzjOcF2Dg1ds7ccafxgbY1xZrFRvBIkErW0bNDFa/dpW/RKNIbQACRSx/zfDFBAVgptYxfFTx7KO7R1zw1Ly/H5ubuXjaa1o7ftS+pohfIGYwou2ph88bK52+gDoc0iu9di+scKl1d9oWWtMjI0x1stAFdsTPtDaxhegUvGyVn4ZiSGWhJRFAeVzz1nyaWOowPFzChrhWjbGqiGJTTood2H4nbt0/lLxCnkEgXkx5oz8B2nFDYBmpIM1EDRivIlTDBcyfQDEOQbEDPgZsLJqTrLGwpgYG2MMVrc1E/kPXttZBecWFHmF9u2ASAyhoQbOmKdPBNp4IxhKILByZn54VG1J8TIJUbkhI7yuH7iS3IjzFFAKnFookrMyB9HkyVxq2Pyt0C2MlVM0dEZ5FPRBX0DveCzIj1D8xRRH5Hk1gCE0NhsjW0+NS6s1wfd4bnGR4wBruJFaHVT4LRJD2CoUIdDoKcfj99kK7Vb9yryShLG17/vIZ9WLtZUQzRyVPY/Y9q7l7HEFvcSUc8pXWC2YI16hPugLsLiMTF5iEhwurqXkmT6i7YYxpjRWxhwVyPTOHMC3ckK80D7XdSSGsEFJJM6LSJP3v+FSQpjyPPUC+2FaYefJe183jb7GTmFiGU8fibW4lQuhYkmENISyvMbViQaalBCu9JF+SWPMTyg4YPKS9U10tNbWwdiwWhgrY2bs9QI0TR04bTEdaF2HilVv0yteF9m7FHD/ojmUumRakfyCC9m8htVmWBxugSuFg6e+f8juLbinK6EoEcuKxAk1qgCRhafJpdT3FAtjonAksXJqrdRKTdf9ndqmD6KhMcVNBpXpjbndvznuxt6zx80ph9NC+VgSVcbNGNFH8GHgWieL2/wn2pYqgprCMYZfZfKBN6z21dJCc9ZTxX5qfBmZIWiL8bCvIRJz2iM5eTwgczCmMDRRzcKBWe2l8/j430xqiyHbSSvuBZl0OG1qwJLaJ6+CEkFDYjaf+IJHkvQ58gzY520Lq9FOMz+ZlFAfpMaRDcXYYHpwYQEgJZg8XNZVpte6Z6zJJ0UnSRmjE6mBipkso5OSYlBCM5IMuNGpFAyNq/FOM2OrdW9DDBEsCSlOcLOQJ8k0rgnHLCTBhMkEFiU9LMFFLmryFHHrei9g1clkv5QlAdFoy0seNPeMYgQk1eKEahcg9qlSN6AchSEF1ALvoXIehBtZV8QvcLtXmjmTphqPLR7pXbjW42KIEQW/SPkj8xtgSyLAN6NzHz6f0zy49mstdrMLWvqnQYZg/EIUkS2HEKKVVLklDSxx9dYiQ+StiaQCWEgSllJVRvDDUru9qis5qGQSkmr88lvQCkLJI9u6SCx/0+q90hd9kmcRP181L+W6B6eEGGRQgad5jXuhBoP68bIQWDgE0iAd8RjPEEjR6YcOWcQ3N8sWkR82b9oM0ZXKMIKGuRJChDd2ck6nn5bCQUFMSsy2/D7riRNuIvweJQ29hNzKYAUF/IrHz9LiSJohgRWCtYFY1of6WjyTNn9HStlb5n0U0mRqk5RLbSrTpVgcNcC3ZbSAJtAmD9DMaKevbVh5uvrf2/naHEOUY2oTVfalDa7suwofvcbet21IbuLzXDzkFTTv4aPKq1TVWbKZ23nuwfoSQ2YPK+fhkSOW9OvRH5BuQS5pnzKxAT8G/3vFV9EomPXirwETFD+v5bvWMkSTI+GQTkLnMoav32GBId/clJwzFGFfSRn116/GK31nXjhpeZK+ffwiQ9ftEM5SfOXBPBdgXTCEbRVaOUgFgkj92xNGWxTJOdnhMw8eko6ivRcpa8upzaRXn/S9cFrucsU5yAY3l7vQ6N+WsGhoXNIC1OqSEm1GP0p364IhQLhnTIqkklHId+jOJ7uiYHG4dlY2P4mtXsGMMsCWXavJBgdwASf8CgC4ItUIyzOGjQ5rzhAmHRTzj+uwC3mSOKEAC+woljCtLCbLvl5BaWvLRAgHTEhwyijNHxwBcE5cpTwNWUU41DaylFhzhoCgdlCXAyyKZuISxpzFzJzWqW6LV0ipa4dVAS61wHAQLsQ5qDCzMKmgk3BFlyDdzs5d6NDxRoa1ZQjtyxAzcaXiA7i/89FMchHtFJMcWl40rycig1NS0VocZeAKcEyPMXBqy4JwRatyPaG+Ii5ryhCIVky2YQWw+lWQAy8gyhqVYGaePCpHztSKA1irC8CN8Da4grPFOTj1pbEwpo26bawZQ5juoO2BmAAlgnpVDhDAvEvLzZ18QuFxOXDWw1ZRznTgBG7UkyDy6s1hygUwFkzRlaKh5W2ul89rxhDYaH1KmsXbx9lIPrPSZuXvTz6h/Rl3ME6c9QrCDRxnhCs4mxnKmKRg2ph2BYnA6xX9anitCUMgHUiFI7SduKj4SAMUSQJJadVoMDEsAq9XMCkhBs6ocAkBN1MwhSyhbsoCjN62V2OsPyl3vYyz/QyBIqkQcowiHxQczWdQEyMgC4voqB2WWb+8UJw7pIQCU5QWIgmmEOdQdjYHm+MqR8RYG02hK3bUvnftZwj1iDUxqhPTcU5cy24HshK/JKPY450w5daxdPDTYzgK1zmdTwV3iqIAjIkiJCPv3afIraKj7aeyRzHya1tRNUVSOQBxJdMMS/EKDuoETig7X6HkmVyydsJJ5BGu8g0Ev8A5o/MhjMGcVZIcjG34OgXpLpUZqjFvFKujfQzBVqGV06/CYihdMcUAUCQBlDJqR5Ev4JWzVZ7H1jWvIYCzT7ebVVTUQGOL6RGRIzo+wJhNEm4A30T7GEJU6tFTdjknyaOMzHmj73DywAyk2JHFvRG2imDGi3/BGdzJdmLr8M40xjik+MyAHFYc798I0B6GMEVS0uH8EStYjmnmgZhA6lkdiuEEuPbjDQvCnTGkNZaMyht46FNSLg+VZeyBW97/sj5f28MQEqtWq1rpdUO4dhXMQvNeVEr9tA7bzCpFjTT1jSgd/LSCO5KBinkUS2VsjJHvGfOgAndUnlvv0BaGsCIfKuw1pEwoXwJoKaf6Sa9MupQKc5ER1c4sqNWaFMZAXSrGlH5ZuZ+cRheQKGzlDEWD9W6GrjpDoHD1qiYVkUASUw0kXtlzz3z3dWUiS5HkUG2gXwa/b9S/CD6NZU61Lc9892Bwsi2/DSZYEKLBeo9ztJYhJCJL1ABEpswvS3yR2MSLB1CAnKLl6A4knWzkraKcd23r0JjQJZLyYJLkA1ghMSmXZFtDk7CzymgmWq0HaI4hGIRGw4CI9lmRDE5YeSDx5aJNJi4p8okUQIxmdZp58l6tIOpUrxNCeJRb8cqYGNvZ+w7aWG3r0Nj7FQ0dVFIuyUCFw0zqsDtPO4v25mkaZphW4FRvGw2fy/COFvz1/Tpyh2lF6NfrCCBAbcaRG3e4XtVcJG0dWJxRnWmZmWnqL3JM7ZzYK2xoJX+WFnWeQ44qCrCjQ1BTu0f1PCnlyCGkQgln3QXNxu7YZ88QKymizkKTUtpOaIghPDOQFELaG2YVJ5tgDD/xDAKJgQvXrAq0cOodKJV+mqpqigGcq8zA2BmbpdtprCTgJhKq6amAnj1iQQslPM/QDKUTCZJR+DxJ8VWdQUFBNe9u+GIaX0WIzhB5JcGet63Se6O3KmKpXELLZyhHXFtGyaQrgAWRKDpiB1UwP89VyIv+eSXQWB0Mjd1ANKKUcQmIDiZFVGCsX8k1FIbt1klzSjYu+uo45bQtaaB1H6IzhPrGdKIQ1/jt+6z+klcWV0KLoug4pXgWhh1z5wTTOcwTnFGldjX5Ht4zW5NGmnQkyJDKH1CwzJTvRw47Cry2CyIrlQgI0t1G9TA0iobXywwMCEaK6XwktaH7lUDCKW9Tnmw1nVvvGRtjZKw8yM28lBChDsAigbZjKk4CrfNCuY47m78kmoQAM4k3K20sncHnMkRBgyfekEAypBPQ88dVylgm6LkI6E+MkbFGWTSeFtCWexPyXVDaqF26RCSG4KEn3VKIhqUAEahqSNxr5VCJZfiGHUEp4nwqe0Nteeqtp1ekHaJfVgVjtMo3jWyL0Cnv4Zz6nkx0KeHtgEgMgV7Tr5BuTNpwdyzyblMYD/vjoCTMrk9fHxzth4jnEohO5q5X5RnG2ihglUDrPqUKkHPRDt9EJIYg8wfrwkQg3NEoIGkkUnmyndxabRloo6g2dB8MwX88WagJOnErTGFFzuCrNuyu0RhCOPlBNjHOgMZqoKsPsnWgKgUgDnSyNEM+rL4ojcYQwieXfzAq+mUzTEHQy0496fWc5AoRBwUad3SjAI2JCttThNtkakRjCLkNeKwy6fJmW3eXe1jqHDqMJeuC4mE8jcZK9um7Dc8YjAFQphTOJR7V1MsTCht0wJHFTXq/PfbRtx30sGp/IzEEpg81kqi5ZIolKeYNgpcuHIWzQlt6co09t7LB9tbDbbjoKbjWL7+DL7yGP6JRGcFC4YyrPTJSkrQdcY1IDAHREV+cnaBuI7ZyXR648tkShVBMyTfk2Z1JpeWndeCFk97+mZWFWxqlZqGBVXzjV60Uvu54n+V9DHCUTxFNnleOydnoJJJXgYsfWgcPnl/FcYSajsQQDI69n9NVxPqxk3FF111rWhKG+9GNYCQ06EGl5PP8i7SeL0VpPmMMPcPKiNCmVRGiR6S3S4pz24NsdfYifqHC/CqFhI/GyjCzTQh/S7glvK3x1qt0QSMKrycV4LLi7tCrwW0n0oB0cSSGsMY1TirBTSrWT7RzWI8NYJWviLAGST3G+bwjqk/+jB4SRVC+dG6BTOwBVXRLKe9ySmV77Hicqr+RS7DebBGL9hre2h7kiqdS/4geFxmX38EkJjyvFc6pLh5iy8PqyAepR58wZVuF03lmBzT2VfeiTmyj10dmCJMSWuJzr55xp75xQJO8oGNreu62qsVXE4+me4g4M8o15OGsOT1cZPzO/XrmppQu7bkoXdxLXgCE5SEpSW0hZ+95TZVvT1r5ZAZYrf1GBx/5PiScJhulgLTAEcVzxhTtHZCEw69ioN/JAsvo2eOnvvWqS6uwK2kB4z93oYqpBQ+OqzYOo5MWzJSKkZy951WjMX1Vuz4y/nXcEJkhaBME4eS5186403drFah+4zATSRhck+pNLVY3Na5JOOV4f/BMzuC428TRaXsI27iejmvFQiRljDHEHLh9YYwBnY2cUbHSqfsPmn7hzzt4HOoYX8suYbKQgr3UwlIJAx7SGr9wVMqjyh2zHQgs61r5HlN6NHVS2eTZY6rcK+ZYnMpYbkNalfTYVsgtJdxdpFNQMSetsykzj2vb1DNAqKALjdvJDIyhIYbgRmMKFB+OxM+oMJgGQ7Hy3i3aClj1AuomUD2OwfH8S6rZ2hYghkJzTj2lghuqgkvOpT3r0ggVbD8kjXTLbQvhKNfDY5NTqhlNrUqIbBOkdlYT6MMA6aUHoQ1cvtUN37TT6m+b7qQMKKODwvhWxkDli6kZwYPjTTnOb3fUkphX5Tqe7cniMTpJ9+LpvYDRSfSBljzInrrYnk52QRv/dGXniw++OvD+r0fvmv1S/7F68N+TQOotD/ZRYvmUB8amjin5Y0xbBQzAvw6sPgVyts0FW12BwWt027CEKLTJHsdGJ/HGoxL4Vw7sobv+0U0dJignTBs+dyNF85I0h2Ivz2ctaJ4hfOsVxDeMMPYz+922j13lr+q8riEFuiXFpajVZIrWMUSFge76jRtLpMLRkwvuz38w4558YdY98YKKmHdg1Siwc2uv27W1z/H6Tz+1tdCPMYUe0bwo/aYSrBpD7P/iewvM4BnhD+8+WwmHznerQAFozj+AxfefPrvTmIPPbCM5/aukUwT2Ele1EHaHJANI/eyvH3IdZmghgSM2xRz8vc8fLTAItwfbx/KGWs4QWA/oDR4+9+WT/m3ndQ0pAFN8+U+LEhopUUHta331o7AC+cnPH+voCmvIBOVd16O3rYqE8IjUg4C/tvO6+hRASvCvFrSUIcZDW8WfPZCvtVSr985v644CLWWI8HYR3q/W3ag7CFWlQClDmOOi6rUr/oCP3sNKoslf13ltLwXwS3jwoRr/mdcShmimUlo4NoHjqQPrjwLXX1Es9lbJBwHGJQzRr6fXNgq4qT0cOamCWx1YdxQokQ5VsCthCPIBG4WwhHjqxY6EaJSOq3nf2y9XmeU81CUhBlX4owN/tSlQ1DBEh4S8jDFVO5lTMdGoEJYQK/kfBge63S/eqedJlMFcdskdOjbvXnkz646dqmwv/82fUfHTRIlgs1ZOnV10rx/NugNvZF12Pp/YEmr/kvP73bveFtSJ5FqCbD//riG3fXNAgpcPZd2Dz6iQSQW4dG+/u/ma4N4Tpxfctx5Kllz1wVuH3ZbxIIVuQekl/+1bpfT7xIfGSq5f6cM9jyTNXxDGudY9T0ln+9HLK0vlenSIEoag0/EPXuyOf+nJWv1X/C2KhbFjS6/7B7+kwls14NTkovvKN866r92rp/mG4DMf3+z6ODNZBRTydw89m3a/+QcTLpkuRvSY/L/zgWBiplM5Y4iPvm/UXXVhUHI4mcm5mz9xsGKrv/V3t7hrLg3E7UnhFWYImJtoYtgN/OLBrHvi+SCai+G20ljLO90m5vrCV08bw3qcy68Jf37+1Tn30d85Ev6q4vsSHWL5mrF7li21UWU0ISmiwGo4pLaM9bjf/sQW98s/NxoFFTskdaskwde/sNve17o57Dwb0sTCqJXg8guKdaofeDLICfXX/a27VAykjD8/9rPRcPZtrebrh949XGieLKpqUJEC2z71NnfoH95nx+2q3djK7//FV/UYZ51s3jza464U8d/51gHXmz8T+Rsf22xSYq7CNnC/JufhZzNufKTbIQ4v2xdzo0MBj7MaPvnXxt0ffbMY0CnH+f98f8ax+v2E/sJ7R9wffO1MyWUX7VEKvQ4le/gf3y7dDj5wS5HQ/pobryqad0is/3lP6T3gerG2MIDt7e7vlUrB7z5WynRcR6bj1+8rvY7vgR+/3LraERUZIqa08h2fuckd+fzDQY8r/A3rD41YGN+4f6Zk32fv/JpWOBPFv3e+NeH+smxlgtLjz2UKxPyP3wwKjt/z784vrPQbroyLIaojz2QcOj7v9u7Q+UvB7dcnljHER24vTjjbyutHiyZ1PNZVuDel39JzS26rJNuAvr/6oph77pVgov7lfz1dggTbnmeI9FzOlf9ecnH+Q0Zt13NdpXv5rh4Lg+uWbRl8CQwpDX7X52523fn6ksG3lf+GGWIlhbJyC6Xf/lQK3lSyWAzhxquK5lLplcs/Pf1SUbnyE738quI335YC52HfrmDV+s+83ixm9PCYGDAMf+P24nbxwutz7ukXi79//OejKZLhdlfjfT0KJf1WZQh+pEbS3n99hxvU8bRaEEWhrNVO+LdYfxG1CVkF9cL+XcFq53qUx5XgT75TFMMogLfkrQnu6xYKe7YX2/tf3y1ey+/hfRkxzxbkgW1vPUE9CiX4VtwywgPp3zPsdn/+Vjd9/xvu7F+87GZ16CYMYQ9lq+IXv/LhcRO7vp/vP1nZHPS/83rtZXH3izJJr9hfVAB/Iu17JZicWXQnxXBb82bjB6V8PSgrBbjjBhVdzasPbC/ecuC3fukV6BceMGNnJdYXddygR/oPSirmKmZwK2BksNs99tX9y5q69/Gk++wf1k5CCjPDsgbKvliRIfz1Iyqvx7/MS6d1wOa4mz1wxmV1KJeHlnpodLv4Z7+6VZnAzmFZXCCxzauH01OL7rUjlYn6j7UXf/qjm52qK9sk+Ht4ZWJ+77+X7t3h38Pv0U/wbwDoHR7eH1IYy+38D9+mc5x5Zpk4o+dkiBmAV96cN0bg/d9+/5j7rX8/wduWALpJOZyX96OUfx/+HN4ualkY3FM3Q/gOcG+HXdw9yNU8VHMm+d+rvd71jsoxFDTrj332SLXbzBLpLfJO4Tom6Ne+qFNUIT9E4ccKb7AcPEOMDfc4ViPbzVsvKUqbb/5lcTugib8uhvDw8I+KusN9j6cKDHFL3hHmr2v2dUFMXg6TMytviyUSYnkTJU1GZoiSu/kQYtpWbRmYmBD2d//LqZqTmp7VQ1i0MplA76yCaHf92iGrnLwM1ypfvCHv6IwYYFjtAB+Q5xEfxdhQwG2YjmHlkzVwyd4is3zoPcPmROLe/FMneWt47d/ZV2KZ2A8N/IFBb/nkwQbudAWri5s5ZVcLmmYIOxmU76HRLePjnzvqYIKMTLDDMgOZgHrg3/7JGYeid/2VA+6PfyfYuvBfsJVENdEelQVx501BxPbOGweDU955JF45nHXhA0+4qsOpI7xHp6gEbBv/5I9q7/GV7mvld+Eto1pQy/dXlPf+myZeG5UQLx6ccy/pHyu1XmYIo4myx/0efukulU+W6I8CYecRDi7PHLTxfx8s3S4+InPTAxLqzYn5kn/4JDzcdl3RbPXftfs1vGXUcFIaWk1JiPBR9bVOivnMlybcn/2rPabosWK/+Ovb3N//58fqpv0zB2ZNSuGVxOF0zSVF5fLu7xUZgrav2F+0Lr4gL2vY3KTDd7xlwH35NwOJBWPu2tbrjkxUDtbVjWCDF0aRDnTRJEMUsVzrpBikC9HKW68NViTuY0xQHEb1wrNiCu929hYEUi+84lGAMSsBVtv/e7jo2PL9PPpj1YOQLuPd72wbv/ufT/mfG3odVoQXL2wlwGz+5c9VVr5LpEOlm8u+a2rLCEuIRlzWZbg0/fG3/8OEmZu+od/7dLQg3Z/KhV4O9/2wNK7grRGug1kqhdr5Db3Dw+3XF7PJ/HdRX2FQgm+V/uHqrwb1uqz9/U0xhG+k2dewwhalrfKAF5r43aFJ3b2tz9123fLJqGaL3/tYsoShwCWsW/D5yny4nPcPPF3KLHzn4TuhABV+FcLkqwXVxtNIfyUFQ6I20BdyAnB+s1GlMmq/nevrp8C3v3R+4ZDvgkLKKymVLWPbDjPUP0ntvLJEh6jDnG+YIcL6w1pbGO0k8EbqKxx8q3dbaZghNhJh/qriGlWhhE4dhjiHuaVEQtTp8WsJQ4T3qXOYvhtqaL/6kfECvvVuF9zQBEMUNRQYIsyNBUw6b9aEAngnP/ULIYaoUzqAbMMMgfkSDpSEEVgTKnQ6NQrADH/82cBtzhcLSjQJz9NKZGrKD4H3rLenGETC9CyvZbQSAp3fW0MBL6XDC7OeupTlvTfFEDTWqwSAsAkKUxAGx5Xt35d32vncGgrABEgEXsOMQOtIBaRDVGiaIZAS3ap7WK2qWVSEOtc3T4FGJIPvtaloJ42gSywuwYkdpvBEXavXZhjB49w0Q/iGqKGMMsv2Yf/0Q3gr8dd1XltHAbYFFiSQ06L074NvGvvbMoagexAKNNo8lo3h1LlrDSnQsNm5hjh3ul5FCvRms/OuW5ZCUNk0yARaxf46Ta9zCvROzSxPAVvnOHfQW0UK/H/Cddd1xCpY6QAAAABJRU5ErkJggg==;fontSize=14;" vertex="1" parent="1">
          <mxGeometry x="16" y="429" width="116" height="126.55" as="geometry" />
        </mxCell>
        <mxCell id="w1OrHkaXiFYTRzztFPkm-18" style="edgeStyle=orthogonalEdgeStyle;rounded=0;orthogonalLoop=1;jettySize=auto;html=1;exitX=1;exitY=0.25;exitDx=0;exitDy=0;entryX=0;entryY=0.25;entryDx=0;entryDy=0;" edge="1" parent="1" source="w1OrHkaXiFYTRzztFPkm-17" target="w1OrHkaXiFYTRzztFPkm-14">
          <mxGeometry relative="1" as="geometry" />
        </mxCell>
        <mxCell id="w1OrHkaXiFYTRzztFPkm-20" style="edgeStyle=orthogonalEdgeStyle;rounded=0;orthogonalLoop=1;jettySize=auto;html=1;exitX=0;exitY=0.25;exitDx=0;exitDy=0;entryX=1;entryY=0.25;entryDx=0;entryDy=0;" edge="1" parent="1" source="w1OrHkaXiFYTRzztFPkm-17" target="w1OrHkaXiFYTRzztFPkm-15">
          <mxGeometry relative="1" as="geometry" />
        </mxCell>
        <mxCell id="w1OrHkaXiFYTRzztFPkm-17" value="Business rules and mapping" style="rounded=1;whiteSpace=wrap;html=1;fillColor=#d5e8d4;strokeColor=#82b366;" vertex="1" parent="1">
          <mxGeometry x="223" y="439" width="135" height="88.78" as="geometry" />
        </mxCell>
        <mxCell id="w1OrHkaXiFYTRzztFPkm-19" style="edgeStyle=orthogonalEdgeStyle;rounded=0;orthogonalLoop=1;jettySize=auto;html=1;exitX=0;exitY=0.5;exitDx=0;exitDy=0;entryX=1.001;entryY=0.599;entryDx=0;entryDy=0;entryPerimeter=0;" edge="1" parent="1" source="w1OrHkaXiFYTRzztFPkm-14" target="w1OrHkaXiFYTRzztFPkm-17">
          <mxGeometry relative="1" as="geometry" />
        </mxCell>
        <mxCell id="w1OrHkaXiFYTRzztFPkm-21" style="edgeStyle=orthogonalEdgeStyle;rounded=0;orthogonalLoop=1;jettySize=auto;html=1;entryX=0.016;entryY=0.599;entryDx=0;entryDy=0;entryPerimeter=0;" edge="1" parent="1" source="w1OrHkaXiFYTRzztFPkm-15" target="w1OrHkaXiFYTRzztFPkm-17">
          <mxGeometry relative="1" as="geometry">
            <mxPoint x="221" y="491" as="targetPoint" />
          </mxGeometry>
        </mxCell>
        <mxCell id="w1OrHkaXiFYTRzztFPkm-26" value="&lt;b&gt;Authentication:&lt;/b&gt;&amp;nbsp;&lt;div&gt;Shop URL&lt;div&gt;Shopify Access Token&lt;/div&gt;&lt;/div&gt;" style="text;html=1;align=right;verticalAlign=middle;whiteSpace=wrap;rounded=0;" vertex="1" parent="1">
          <mxGeometry x="-115" y="436" width="129" height="48" as="geometry" />
        </mxCell>
        <mxCell id="w1OrHkaXiFYTRzztFPkm-27" value="&lt;b&gt;Authentication:&lt;/b&gt;&amp;nbsp;&lt;div&gt;Server&lt;/div&gt;&lt;div&gt;Username&lt;/div&gt;&lt;div&gt;Password&lt;/div&gt;&lt;div&gt;API Key&lt;/div&gt;&lt;div&gt;Default Company ID&lt;br&gt;&lt;div&gt;&lt;br&gt;&lt;/div&gt;&lt;/div&gt;" style="text;html=1;align=left;verticalAlign=middle;whiteSpace=wrap;rounded=0;" vertex="1" parent="1">
          <mxGeometry x="562" y="442" width="129" height="96" as="geometry" />
        </mxCell>
      </root>
    </mxGraphModel>
  </diagram>
</mxfile>
